<svg width="56" height="233" viewBox="0 0 56 233" fill="none" xmlns="http://www.w3.org/2000/svg">
<mask id="mask0_6_165" style="mask-type:alpha" maskUnits="userSpaceOnUse" x="6" y="24" width="43" height="209">
<rect x="6.55908" y="24.4081" width="42.3238" height="208.092" rx="2" fill="#1F1010"/>
</mask>
<g mask="url(#mask0_6_165)">
<g filter="url(#filter0_f_6_165)">
<rect x="19.7083" y="37.5001" width="15" height="193" fill="#D9D9D9" fill-opacity="0.11"/>
</g>
<g filter="url(#filter1_f_6_165)">
<path d="M26.7083 37.5001H30.7083V230.5H26.7083V37.5001Z" fill="#D9D9D9" fill-opacity="0.11"/>
</g>
<rect x="7.55908" y="23.6447" width="40.3238" height="207.855" rx="1" stroke="#B38252" stroke-width="2"/>
<g filter="url(#filter2_f_6_165)">
<rect x="7.70825" y="24.5001" width="8" height="208" fill="#262626" fill-opacity="0.22"/>
</g>
<g filter="url(#filter3_f_6_165)">
<rect x="38.7083" y="23.5001" width="8" height="208" fill="#262626" fill-opacity="0.22"/>
</g>
</g>
<g filter="url(#filter4_i_6_165)">
<path d="M15.3765 2.51815C21.4506 2.98677 27.7215 13.9808 27.7215 13.9808C27.7215 13.9808 35.2696 2.01211 41.8288 2.51815C47.9029 2.98677 57.7003 12.2175 50.6465 21.0349C39.6301 34.8056 27.7215 45.7237 27.7215 45.7237C27.7215 45.7237 17.1403 37.4947 4.79571 21.0349C-1.81726 12.2175 8.81726 2.01211 15.3765 2.51815Z" fill="#4C351D"/>
</g>
<path d="M15.3765 2.51815C21.4506 2.98677 27.7215 13.9808 27.7215 13.9808C27.7215 13.9808 35.2696 2.01211 41.8288 2.51815C47.9029 2.98677 57.7003 12.2175 50.6465 21.0349C39.6301 34.8056 27.7215 45.7237 27.7215 45.7237C27.7215 45.7237 17.1403 37.4947 4.79571 21.0349C-1.81726 12.2175 8.81726 2.01211 15.3765 2.51815Z" stroke="#B38252" stroke-width="2" stroke-linecap="round"/>
<g filter="url(#filter5_i_6_165)">
<path d="M15.3765 2.51815C21.4506 2.98677 27.7215 13.9808 27.7215 13.9808C27.7215 13.9808 35.2696 2.01211 41.8288 2.51815C47.9029 2.98677 57.7003 12.2175 50.6465 21.0349C39.6301 34.8056 27.7215 45.7237 27.7215 45.7237C27.7215 45.7237 17.1403 37.4947 4.79571 21.0349C-1.81726 12.2175 8.81726 2.01211 15.3765 2.51815Z" fill="#C54B4B"/>
</g>
<g filter="url(#filter6_f_6_165)">
<path d="M15.2081 4.51639C20.9939 4.93921 27.5346 17.5001 27.5346 17.5001C27.5346 17.5001 35.9602 4.05979 42.2083 4.51639C47.9941 4.93921 55.4274 12.5442 48.7083 20.5001C38.2146 32.9251 27.5346 43.5001 27.5346 43.5001C27.5346 43.5001 18.4671 36.0752 6.7082 21.2238C0.409004 13.2679 8.96005 4.05979 15.2081 4.51639Z" stroke="#5B1414" stroke-linecap="round"/>
</g>
<g filter="url(#filter7_f_6_165)">
<ellipse cx="19.905" cy="23.2845" rx="3.5" ry="13.0565" transform="rotate(-33.9616 19.905 23.2845)" fill="#D9D9D9" fill-opacity="0.17"/>
</g>
<g filter="url(#filter8_f_6_165)">
<ellipse cx="3.5" cy="13.0565" rx="3.5" ry="13.0565" transform="matrix(-0.829412 -0.558637 -0.558637 0.829412 45.1018 14.4105)" fill="#D9D9D9" fill-opacity="0.17"/>
</g>
<g filter="url(#filter9_i_6_165)">
<path d="M15.3765 2.51815C21.4506 2.98677 27.7215 13.9808 27.7215 13.9808C27.7215 13.9808 35.2696 2.01211 41.8288 2.51815C47.9029 2.98677 57.7003 12.2175 50.6465 21.0349C39.6301 34.8056 27.7215 45.7237 27.7215 45.7237C27.7215 45.7237 17.1403 37.4947 4.79571 21.0349C-1.81726 12.2175 8.81726 2.01211 15.3765 2.51815Z" stroke="#B38252" stroke-width="2" stroke-linecap="round"/>
</g>
<defs>
<filter id="filter0_f_6_165" x="15.7083" y="33.5001" width="23" height="201" filterUnits="userSpaceOnUse" color-interpolation-filters="sRGB">
<feFlood flood-opacity="0" result="BackgroundImageFix"/>
<feBlend mode="normal" in="SourceGraphic" in2="BackgroundImageFix" result="shape"/>
<feGaussianBlur stdDeviation="2" result="effect1_foregroundBlur_6_165"/>
</filter>
<filter id="filter1_f_6_165" x="22.7083" y="33.5001" width="12" height="201" filterUnits="userSpaceOnUse" color-interpolation-filters="sRGB">
<feFlood flood-opacity="0" result="BackgroundImageFix"/>
<feBlend mode="normal" in="SourceGraphic" in2="BackgroundImageFix" result="shape"/>
<feGaussianBlur stdDeviation="2" result="effect1_foregroundBlur_6_165"/>
</filter>
<filter id="filter2_f_6_165" x="3.70825" y="20.5001" width="16" height="216" filterUnits="userSpaceOnUse" color-interpolation-filters="sRGB">
<feFlood flood-opacity="0" result="BackgroundImageFix"/>
<feBlend mode="normal" in="SourceGraphic" in2="BackgroundImageFix" result="shape"/>
<feGaussianBlur stdDeviation="2" result="effect1_foregroundBlur_6_165"/>
</filter>
<filter id="filter3_f_6_165" x="34.7083" y="19.5001" width="16" height="216" filterUnits="userSpaceOnUse" color-interpolation-filters="sRGB">
<feFlood flood-opacity="0" result="BackgroundImageFix"/>
<feBlend mode="normal" in="SourceGraphic" in2="BackgroundImageFix" result="shape"/>
<feGaussianBlur stdDeviation="2" result="effect1_foregroundBlur_6_165"/>
</filter>
<filter id="filter4_i_6_165" x="1.70728" y="1.50003" width="52.3918" height="49.5317" filterUnits="userSpaceOnUse" color-interpolation-filters="sRGB">
<feFlood flood-opacity="0" result="BackgroundImageFix"/>
<feBlend mode="normal" in="SourceGraphic" in2="BackgroundImageFix" result="shape"/>
<feColorMatrix in="SourceAlpha" type="matrix" values="0 0 0 0 0 0 0 0 0 0 0 0 0 0 0 0 0 0 127 0" result="hardAlpha"/>
<feOffset dy="4"/>
<feGaussianBlur stdDeviation="2"/>
<feComposite in2="hardAlpha" operator="arithmetic" k2="-1" k3="1"/>
<feColorMatrix type="matrix" values="0 0 0 0 0 0 0 0 0 0 0 0 0 0 0 0 0 0 0.25 0"/>
<feBlend mode="normal" in2="shape" result="effect1_innerShadow_6_165"/>
</filter>
<filter id="filter5_i_6_165" x="2.70825" y="2.50006" width="50.3909" height="47.2236" filterUnits="userSpaceOnUse" color-interpolation-filters="sRGB">
<feFlood flood-opacity="0" result="BackgroundImageFix"/>
<feBlend mode="normal" in="SourceGraphic" in2="BackgroundImageFix" result="shape"/>
<feColorMatrix in="SourceAlpha" type="matrix" values="0 0 0 0 0 0 0 0 0 0 0 0 0 0 0 0 0 0 127 0" result="hardAlpha"/>
<feOffset dy="4"/>
<feGaussianBlur stdDeviation="2"/>
<feComposite in2="hardAlpha" operator="arithmetic" k2="-1" k3="1"/>
<feColorMatrix type="matrix" values="0 0 0 0 0 0 0 0 0 0 0 0 0 0 0 0 0 0 0.25 0"/>
<feBlend mode="normal" in2="shape" result="effect1_innerShadow_6_165"/>
</filter>
<filter id="filter6_f_6_165" x="0" y="0" width="55.8706" height="48.1723" filterUnits="userSpaceOnUse" color-interpolation-filters="sRGB">
<feFlood flood-opacity="0" result="BackgroundImageFix"/>
<feBlend mode="normal" in="SourceGraphic" in2="BackgroundImageFix" result="shape"/>
<feGaussianBlur stdDeviation="2" result="effect1_foregroundBlur_6_165"/>
</filter>
<filter id="filter7_f_6_165" x="6.05273" y="6.27832" width="27.7046" height="34.0124" filterUnits="userSpaceOnUse" color-interpolation-filters="sRGB">
<feFlood flood-opacity="0" result="BackgroundImageFix"/>
<feBlend mode="normal" in="SourceGraphic" in2="BackgroundImageFix" result="shape"/>
<feGaussianBlur stdDeviation="3" result="effect1_foregroundBlur_6_165"/>
</filter>
<filter id="filter8_f_6_165" x="21.0527" y="6.27832" width="27.7046" height="34.0124" filterUnits="userSpaceOnUse" color-interpolation-filters="sRGB">
<feFlood flood-opacity="0" result="BackgroundImageFix"/>
<feBlend mode="normal" in="SourceGraphic" in2="BackgroundImageFix" result="shape"/>
<feGaussianBlur stdDeviation="3" result="effect1_foregroundBlur_6_165"/>
</filter>
<filter id="filter9_i_6_165" x="1.70728" y="1.50003" width="52.3918" height="49.5317" filterUnits="userSpaceOnUse" color-interpolation-filters="sRGB">
<feFlood flood-opacity="0" result="BackgroundImageFix"/>
<feBlend mode="normal" in="SourceGraphic" in2="BackgroundImageFix" result="shape"/>
<feColorMatrix in="SourceAlpha" type="matrix" values="0 0 0 0 0 0 0 0 0 0 0 0 0 0 0 0 0 0 127 0" result="hardAlpha"/>
<feOffset dy="4"/>
<feGaussianBlur stdDeviation="2"/>
<feComposite in2="hardAlpha" operator="arithmetic" k2="-1" k3="1"/>
<feColorMatrix type="matrix" values="0 0 0 0 0 0 0 0 0 0 0 0 0 0 0 0 0 0 0.25 0"/>
<feBlend mode="normal" in2="shape" result="effect1_innerShadow_6_165"/>
</filter>
</defs>
</svg>
