<svg width="59" height="245" viewBox="0 0 59 245" fill="none" xmlns="http://www.w3.org/2000/svg">
<mask id="mask0_6_207" style="mask-type:alpha" maskUnits="userSpaceOnUse" x="8" y="36" width="43" height="209">
<rect x="8.66931" y="36" width="42.3238" height="208.092" rx="2" fill="#1F1010"/>
</mask>
<g mask="url(#mask0_6_207)">
<g filter="url(#filter0_f_6_207)">
<rect x="21.8185" y="49.0919" width="15" height="193" fill="#D9D9D9" fill-opacity="0.11"/>
</g>
<g filter="url(#filter1_f_6_207)">
<path d="M28.8185 49.0919H32.8185V242.092H28.8185V49.0919Z" fill="#D9D9D9" fill-opacity="0.11"/>
</g>
<rect x="9.66931" y="35.2365" width="40.3238" height="207.855" rx="1" stroke="#B38252" stroke-width="2"/>
<g filter="url(#filter2_f_6_207)">
<rect x="9.81848" y="36.0919" width="8" height="208" fill="#262626" fill-opacity="0.22"/>
</g>
<g filter="url(#filter3_f_6_207)">
<rect x="40.8185" y="35.0919" width="8" height="208" fill="#262626" fill-opacity="0.22"/>
</g>
</g>
<mask id="mask1_6_207" style="mask-type:alpha" maskUnits="userSpaceOnUse" x="0" y="6" width="58" height="42">
<path d="M56.5032 8.09418C56.5032 8.09418 40.4008 13.877 32.1344 17.3445C24.0706 20.727 20.8625 24.4564 15.3736 30.4331C10.4789 35.7626 5.66389 42.9628 2.66937 46.2774C23.6157 42.7542 22.6429 48.2373 38.3915 45.3756C43.7059 44.0562 53.3367 41.014 49.1123 31.6679C55.2433 30.2672 57.0847 22.9021 53.0281 20.1464C58.1353 16.9804 56.961 9.53276 56.5032 8.09418Z" fill="#AAAAAA"/>
<path d="M53.0281 20.1464C58.1353 16.9804 56.961 9.53276 56.5032 8.09418C56.5032 8.09418 40.4008 13.877 32.1344 17.3445C24.0706 20.727 20.8625 24.4564 15.3736 30.4331C10.4789 35.7626 5.66389 42.9628 2.66937 46.2774C23.6157 42.7542 22.6429 48.2373 38.3915 45.3756C43.7059 44.0562 53.3367 41.014 49.1123 31.6679M53.0281 20.1464L29.152 28.1267M53.0281 20.1464C57.0847 22.9021 55.2433 30.2671 49.1123 31.6679M49.1123 31.6679L29.5915 37.7063" stroke="#B38252" stroke-width="2"/>
</mask>
<g mask="url(#mask1_6_207)">
<path d="M56.5032 8.09418C56.5032 8.09418 40.4008 13.877 32.1344 17.3445C24.0706 20.727 20.8625 24.4564 15.3736 30.4331C10.4789 35.7626 5.66389 42.9628 2.66937 46.2774C23.6157 42.7542 22.6429 48.2373 38.3915 45.3756C43.7059 44.0562 53.3367 41.014 49.1123 31.6679C55.2433 30.2671 57.0847 22.9021 53.0281 20.1464C58.1353 16.9804 56.961 9.53276 56.5032 8.09418Z" fill="#AAAAAA"/>
<path d="M53.0281 20.1464C58.1353 16.9804 56.961 9.53276 56.5032 8.09418C56.5032 8.09418 40.4008 13.877 32.1344 17.3445C24.0706 20.727 20.8625 24.4564 15.3736 30.4331C10.4789 35.7626 5.66389 42.9628 2.66937 46.2774C23.6157 42.7542 22.6429 48.2373 38.3915 45.3756C43.7059 44.0562 53.3367 41.014 49.1123 31.6679M53.0281 20.1464L29.152 28.1267M53.0281 20.1464C57.0847 22.9021 55.2433 30.2671 49.1123 31.6679M49.1123 31.6679L29.5915 37.7063" stroke="#B38252" stroke-width="2"/>
<g filter="url(#filter4_f_6_207)">
<path d="M56.6693 8L55.1693 19L31.658 26.6864C30.1584 27.2081 29.2349 27.5 29.1693 27.5L31.658 26.6864C35.7688 25.2564 44.2085 22.1002 51.1693 18.5C55.6522 15.4252 55.1693 13 56.6693 8Z" fill="#7C7B7B"/>
<path d="M29.1693 27.5L55.1693 19L56.6693 8C55.1693 13 55.6522 15.4252 51.1693 18.5C41.6693 23.4135 29.4146 27.5 29.1693 27.5Z" stroke="#7C7B7B"/>
</g>
<g filter="url(#filter5_f_6_207)">
<path d="M41.1693 33.4113C34.3781 36.4496 29.8689 37.5 29.6693 37.5L41.1693 33.4113C42.7244 32.7155 44.3992 31.9155 46.1693 31C50.6522 27.9252 54.336 26 53.1693 20.5L54.6693 24.5L53.6693 29L41.1693 33.4113Z" fill="#7C7B7B"/>
<path d="M29.6693 37.5C29.9146 37.5 36.6693 35.9135 46.1693 31C50.6522 27.9252 54.336 26 53.1693 20.5L54.6693 24.5L53.6693 29L41.1693 33.4113L29.6693 37.5Z" stroke="#7C7B7B"/>
</g>
<g filter="url(#filter6_f_6_207)">
<path d="M42.1693 42.5C33.1693 46.3409 25.9146 46 25.6693 46L36.6693 46.5L49.6693 40.5L50.6693 36L48.6693 32C49.836 37.5 46.6522 39.4252 42.1693 42.5Z" fill="#7C7B7B"/>
<path d="M42.1693 42.5C33.1693 46.3409 25.9146 46 25.6693 46L36.6693 46.5L49.6693 40.5L50.6693 36L48.6693 32C49.836 37.5 46.6522 39.4252 42.1693 42.5Z" stroke="#7C7B7B"/>
</g>
<path d="M53.0281 20.1464C58.1353 16.9804 56.961 9.53276 56.5032 8.09418C56.5032 8.09418 40.4008 13.877 32.1344 17.3445C24.0706 20.727 20.8625 24.4564 15.3736 30.4331C10.4789 35.7626 5.66389 42.9628 2.66937 46.2774C23.6157 42.7542 22.6429 48.2373 38.3915 45.3756C43.7059 44.0562 53.3367 41.014 49.1123 31.6679M53.0281 20.1464L29.152 28.1267M53.0281 20.1464C57.0847 22.9021 55.2433 30.2671 49.1123 31.6679M49.1123 31.6679L29.5915 37.7063" stroke="#B38252" stroke-width="2"/>
</g>
<defs>
<filter id="filter0_f_6_207" x="17.8185" y="45.0919" width="23" height="201" filterUnits="userSpaceOnUse" color-interpolation-filters="sRGB">
<feFlood flood-opacity="0" result="BackgroundImageFix"/>
<feBlend mode="normal" in="SourceGraphic" in2="BackgroundImageFix" result="shape"/>
<feGaussianBlur stdDeviation="2" result="effect1_foregroundBlur_6_207"/>
</filter>
<filter id="filter1_f_6_207" x="24.8185" y="45.0919" width="12" height="201" filterUnits="userSpaceOnUse" color-interpolation-filters="sRGB">
<feFlood flood-opacity="0" result="BackgroundImageFix"/>
<feBlend mode="normal" in="SourceGraphic" in2="BackgroundImageFix" result="shape"/>
<feGaussianBlur stdDeviation="2" result="effect1_foregroundBlur_6_207"/>
</filter>
<filter id="filter2_f_6_207" x="5.81848" y="32.0919" width="16" height="216" filterUnits="userSpaceOnUse" color-interpolation-filters="sRGB">
<feFlood flood-opacity="0" result="BackgroundImageFix"/>
<feBlend mode="normal" in="SourceGraphic" in2="BackgroundImageFix" result="shape"/>
<feGaussianBlur stdDeviation="2" result="effect1_foregroundBlur_6_207"/>
</filter>
<filter id="filter3_f_6_207" x="36.8185" y="31.0919" width="16" height="216" filterUnits="userSpaceOnUse" color-interpolation-filters="sRGB">
<feFlood flood-opacity="0" result="BackgroundImageFix"/>
<feBlend mode="normal" in="SourceGraphic" in2="BackgroundImageFix" result="shape"/>
<feGaussianBlur stdDeviation="2" result="effect1_foregroundBlur_6_207"/>
</filter>
<filter id="filter4_f_6_207" x="27.014" y="5.85632" width="32.1506" height="24.1437" filterUnits="userSpaceOnUse" color-interpolation-filters="sRGB">
<feFlood flood-opacity="0" result="BackgroundImageFix"/>
<feBlend mode="normal" in="SourceGraphic" in2="BackgroundImageFix" result="shape"/>
<feGaussianBlur stdDeviation="1" result="effect1_foregroundBlur_6_207"/>
</filter>
<filter id="filter5_f_6_207" x="27.5018" y="18.3244" width="29.6877" height="21.6756" filterUnits="userSpaceOnUse" color-interpolation-filters="sRGB">
<feFlood flood-opacity="0" result="BackgroundImageFix"/>
<feBlend mode="normal" in="SourceGraphic" in2="BackgroundImageFix" result="shape"/>
<feGaussianBlur stdDeviation="1" result="effect1_foregroundBlur_6_207"/>
</filter>
<filter id="filter6_f_6_207" x="23.6466" y="29.7764" width="29.5493" height="19.2286" filterUnits="userSpaceOnUse" color-interpolation-filters="sRGB">
<feFlood flood-opacity="0" result="BackgroundImageFix"/>
<feBlend mode="normal" in="SourceGraphic" in2="BackgroundImageFix" result="shape"/>
<feGaussianBlur stdDeviation="1" result="effect1_foregroundBlur_6_207"/>
</filter>
</defs>
</svg>
